<?xml version="1.0" encoding="UTF-8"?>
<svg xmlns="http://www.w3.org/2000/svg" xmlns:xlink="http://www.w3.org/1999/xlink" width="140.89pt" height="231.31pt" viewBox="0 0 140.89 231.31" version="1.1">
<defs>
<clipPath id="clip1">
  <path d="M 15 218 L 25 218 L 25 231.308594 L 15 231.308594 Z M 15 218 "/>
</clipPath>
<clipPath id="clip2">
  <path d="M 57 222 L 68 222 L 68 231.308594 L 57 231.308594 Z M 57 222 "/>
</clipPath>
<clipPath id="clip3">
  <path d="M 27 222 L 38 222 L 38 231.308594 L 27 231.308594 Z M 27 222 "/>
</clipPath>
<clipPath id="clip4">
  <path d="M 39 222 L 56 222 L 56 231.308594 L 39 231.308594 Z M 39 222 "/>
</clipPath>
<clipPath id="clip5">
  <path d="M 110 222 L 116 222 L 116 231.308594 L 110 231.308594 Z M 110 222 "/>
</clipPath>
<clipPath id="clip6">
  <path d="M 90 222 L 100 222 L 100 231.308594 L 90 231.308594 Z M 90 222 "/>
</clipPath>
<clipPath id="clip7">
  <path d="M 69 222 L 78 222 L 78 231.308594 L 69 231.308594 Z M 69 222 "/>
</clipPath>
<clipPath id="clip8">
  <path d="M 101 220 L 108 220 L 108 231.308594 L 101 231.308594 Z M 101 220 "/>
</clipPath>
<clipPath id="clip9">
  <path d="M 79 222 L 89 222 L 89 231.308594 L 79 231.308594 Z M 79 222 "/>
</clipPath>
<clipPath id="clip10">
  <path d="M 116 222 L 126 222 L 126 231.308594 L 116 231.308594 Z M 116 222 "/>
</clipPath>
<clipPath id="clip11">
  <path d="M 0 0 L 140.890625 0 L 140.890625 65 L 0 65 Z M 0 0 "/>
</clipPath>
</defs>
<g id="surface1">
<path style=" stroke:none;fill-rule:nonzero;fill:rgb(100%,100%,100%);fill-opacity:1;" d="M 84.078125 200.171875 C 84.078125 199.808594 83.914063 199.691406 83.785156 199.613281 C 82.539063 198.839844 66.746094 188.894531 66.691406 188.867188 C 66.578125 188.796875 66.460938 188.773438 66.355469 188.773438 C 66.253906 188.773438 66.140625 188.796875 66.027344 188.867188 C 65.972656 188.894531 50.175781 198.839844 48.925781 199.613281 C 48.800781 199.691406 48.640625 199.808594 48.640625 200.171875 L 48.640625 216.1875 C 48.640625 216.550781 49 216.671875 49.25 216.539063 C 49.25 216.539063 49.34375 216.496094 49.410156 216.460938 C 49.417969 216.457031 49.429688 216.453125 49.429688 216.449219 C 49.429688 216.449219 49.460938 216.429688 49.492188 216.410156 L 49.496094 216.40625 C 50.039063 216.078125 53.835938 213.777344 54.742188 213.234375 C 54.777344 213.207031 54.816406 213.183594 54.84375 213.167969 C 54.898438 213.136719 54.933594 213.109375 54.933594 213.109375 C 54.933594 213.109375 55.238281 212.960938 55.238281 212.570313 L 55.238281 212.183594 C 55.238281 210.605469 55.242188 204.574219 55.238281 203.191406 C 55.238281 202.867188 55.449219 202.734375 55.449219 202.734375 L 55.570313 202.652344 L 66.039063 196.078125 C 66.039063 196.078125 66.171875 195.988281 66.355469 195.988281 C 66.539063 195.988281 66.671875 196.078125 66.671875 196.078125 L 77.148438 202.652344 L 77.265625 202.734375 C 77.265625 202.734375 77.480469 202.867188 77.480469 203.191406 C 77.476563 204.785156 77.480469 212.5 77.480469 212.570313 C 77.480469 212.960938 77.785156 213.109375 77.785156 213.109375 C 77.785156 213.109375 82.601563 216.03125 83.222656 216.40625 C 83.257813 216.429688 83.457031 216.535156 83.457031 216.535156 C 83.714844 216.671875 84.078125 216.550781 84.078125 216.1875 "/>
<g clip-path="url(#clip1)" clip-rule="nonzero">
<path style=" stroke:none;fill-rule:nonzero;fill:rgb(100%,100%,100%);fill-opacity:1;" d="M 21.140625 222.257813 C 20.5625 222.257813 19.972656 222.382813 19.503906 222.589844 C 19 222.804688 18.585938 223.109375 18.257813 223.480469 L 18.214844 223.480469 C 18.214844 223.480469 18.210938 219.730469 18.214844 219.558594 C 18.214844 219.382813 18.097656 219.292969 18.039063 219.277344 C 17.980469 219.257813 16.171875 218.765625 15.453125 218.566406 C 15.324219 218.535156 15.144531 218.617188 15.144531 218.789063 L 15.144531 230.835938 C 15.15625 230.992188 15.28125 231.113281 15.433594 231.113281 L 17.933594 231.113281 C 18.089844 231.113281 18.214844 230.988281 18.214844 230.832031 L 18.214844 225.976563 C 18.214844 225.777344 18.234375 225.550781 18.316406 225.378906 C 18.542969 224.898438 19.0625 224.433594 19.890625 224.433594 C 21.082031 224.433594 21.53125 225.214844 21.53125 226.347656 L 21.53125 230.832031 C 21.53125 230.988281 21.660156 231.113281 21.816406 231.113281 L 24.398438 231.113281 C 24.554688 231.113281 24.6875 230.988281 24.6875 230.832031 L 24.6875 226.046875 C 24.6875 223.441406 23.152344 222.257813 21.140625 222.257813 "/>
</g>
<g clip-path="url(#clip2)" clip-rule="nonzero">
<path style=" stroke:none;fill-rule:nonzero;fill:rgb(100%,100%,100%);fill-opacity:1;" d="M 60.527344 225.796875 C 60.605469 225.070313 61.148438 224.046875 62.472656 224.046875 C 63.925781 224.046875 64.257813 225.144531 64.257813 225.796875 M 62.664063 222.253906 C 59.136719 222.253906 57.546875 224.683594 57.546875 226.882813 C 57.546875 229.589844 59.515625 231.308594 62.957031 231.308594 C 64.226563 231.308594 65.402344 231.136719 66.394531 230.832031 C 66.605469 230.761719 66.574219 230.550781 66.5625 230.492188 C 66.558594 230.453125 66.273438 229.238281 66.273438 229.238281 C 66.273438 229.238281 66.230469 228.949219 65.9375 229.007813 C 65.9375 229.007813 65.902344 229.011719 65.886719 229.019531 C 65.132813 229.195313 64.351563 229.289063 63.410156 229.289063 C 61.9375 229.289063 60.652344 228.753906 60.546875 227.640625 L 66.8125 227.640625 C 66.8125 227.640625 67.089844 227.648438 67.128906 227.378906 C 67.128906 227.355469 67.128906 227.332031 67.132813 227.304688 C 67.160156 227.101563 67.183594 226.851563 67.183594 226.578125 C 67.183594 224.433594 65.9375 222.253906 62.664063 222.253906 "/>
</g>
<g clip-path="url(#clip3)" clip-rule="nonzero">
<path style=" stroke:none;fill-rule:nonzero;fill:rgb(100%,100%,100%);fill-opacity:1;" d="M 32.34375 229.378906 C 30.992188 229.378906 30.269531 228.261719 30.269531 226.773438 C 30.269531 225.5 30.832031 224.167969 32.34375 224.167969 C 33.773438 224.167969 34.351563 225.480469 34.351563 226.773438 C 34.351563 228.332031 33.566406 229.378906 32.34375 229.378906 M 32.425781 222.257813 C 29.171875 222.257813 27.011719 224.046875 27.011719 226.84375 C 27.011719 229.640625 29.292969 231.308594 32.261719 231.308594 C 34.976563 231.308594 37.609375 229.859375 37.609375 226.6875 C 37.609375 224.082031 35.53125 222.257813 32.425781 222.257813 "/>
</g>
<g clip-path="url(#clip4)" clip-rule="nonzero">
<path style=" stroke:none;fill-rule:nonzero;fill:rgb(100%,100%,100%);fill-opacity:1;" d="M 51.835938 222.257813 C 51.085938 222.257813 50.464844 222.394531 49.90625 222.679688 C 49.429688 222.929688 48.972656 223.265625 48.597656 223.722656 L 48.558594 223.722656 C 48.121094 222.816406 47.089844 222.257813 45.78125 222.257813 C 44.035156 222.257813 43.144531 223.070313 42.714844 223.621094 L 42.714844 222.734375 C 42.714844 222.578125 42.585938 222.449219 42.4375 222.449219 L 40.214844 222.449219 C 40.058594 222.449219 39.933594 222.578125 39.929688 222.734375 C 39.929688 222.890625 39.933594 225.214844 39.933594 225.214844 L 39.933594 230.832031 C 39.933594 230.988281 40.058594 231.113281 40.214844 231.113281 C 40.214844 231.113281 42.570313 231.113281 42.726563 231.113281 C 42.878906 231.109375 43.003906 230.988281 43.003906 230.832031 L 43.003906 226.066406 C 43.003906 225.851563 43.023438 225.601563 43.125 225.394531 C 43.3125 224.949219 43.792969 224.417969 44.59375 224.417969 C 45.59375 224.417969 46.046875 225.160156 46.046875 226.261719 L 46.046875 230.832031 C 46.046875 230.988281 46.171875 231.113281 46.332031 231.113281 L 48.839844 231.113281 C 48.992188 231.113281 49.113281 230.988281 49.113281 230.832031 L 49.113281 226.046875 C 49.113281 225.835938 49.160156 225.550781 49.242188 225.355469 C 49.449219 224.847656 49.96875 224.417969 50.695313 224.417969 C 51.710938 224.417969 52.1875 225.140625 52.1875 226.402344 L 52.1875 230.832031 C 52.1875 230.988281 52.316406 231.113281 52.46875 231.113281 L 54.972656 231.113281 C 55.132813 231.113281 55.257813 230.988281 55.257813 230.832031 L 55.257813 226.011719 C 55.257813 223.425781 53.78125 222.257813 51.835938 222.257813 "/>
</g>
<g clip-path="url(#clip5)" clip-rule="nonzero">
<path style=" stroke:none;fill-rule:nonzero;fill:rgb(100%,100%,100%);fill-opacity:1;" d="M 112.101563 224.226563 L 112.105469 222.816406 C 112.101563 222.664063 111.980469 222.539063 111.820313 222.535156 L 110.726563 222.535156 C 110.570313 222.542969 110.445313 222.667969 110.445313 222.816406 L 110.445313 230.832031 C 110.445313 230.988281 110.570313 231.109375 110.726563 231.113281 C 110.878906 231.113281 111.960938 231.113281 111.960938 231.113281 C 112.121094 231.113281 112.246094 230.988281 112.246094 230.832031 L 112.246094 226.542969 C 112.246094 226.28125 112.289063 226.027344 112.328125 225.816406 C 112.578125 224.648438 113.496094 223.8125 114.78125 223.8125 C 114.882813 223.8125 114.976563 223.820313 115.066406 223.824219 C 115.40625 223.832031 115.398438 223.539063 115.398438 223.539063 L 115.398438 222.65625 C 115.398438 222.65625 115.398438 222.601563 115.386719 222.5625 C 115.367188 222.488281 115.3125 222.382813 115.152344 222.359375 C 115.070313 222.347656 114.984375 222.347656 114.878906 222.347656 C 113.65625 222.347656 112.558594 223.070313 112.101563 224.226563 "/>
</g>
<g clip-path="url(#clip6)" clip-rule="nonzero">
<path style=" stroke:none;fill-rule:nonzero;fill:rgb(100%,100%,100%);fill-opacity:1;" d="M 95.738281 222.347656 C 94.078125 222.347656 92.917969 223.140625 92.425781 223.960938 L 92.425781 222.816406 C 92.417969 222.667969 92.292969 222.539063 92.144531 222.539063 L 91.03125 222.539063 C 90.875 222.539063 90.742188 222.667969 90.742188 222.816406 L 90.742188 230.832031 C 90.742188 230.988281 90.871094 231.109375 91.027344 231.113281 C 91.179688 231.117188 92.285156 231.113281 92.285156 231.113281 C 92.445313 231.113281 92.566406 230.988281 92.566406 230.832031 L 92.566406 225.960938 C 92.566406 225.691406 92.613281 225.425781 92.695313 225.230469 C 93 224.363281 93.933594 223.640625 95.140625 223.640625 C 96.859375 223.640625 97.453125 224.789063 97.453125 226.171875 L 97.453125 230.832031 C 97.453125 230.988281 97.585938 231.113281 97.746094 231.113281 L 99.003906 231.113281 C 99.15625 231.113281 99.28125 230.988281 99.28125 230.832031 L 99.28125 225.996094 C 99.28125 223.050781 97.128906 222.347656 95.738281 222.347656 "/>
</g>
<g clip-path="url(#clip7)" clip-rule="nonzero">
<path style=" stroke:none;fill-rule:nonzero;fill:rgb(100%,100%,100%);fill-opacity:1;" d="M 74.933594 223.601563 C 75.695313 223.601563 76.277344 223.71875 76.699219 223.863281 C 76.710938 223.871094 76.722656 223.878906 76.722656 223.878906 C 77.050781 223.996094 77.144531 223.734375 77.144531 223.734375 L 77.378906 223.050781 C 77.378906 223.050781 77.457031 222.789063 77.195313 222.703125 C 77.195313 222.703125 77.171875 222.699219 77.160156 222.695313 C 76.625 222.515625 75.824219 222.363281 74.933594 222.363281 C 71.65625 222.363281 69.546875 224.273438 69.546875 226.914063 C 69.546875 229.539063 71.511719 231.308594 74.539063 231.308594 C 75.691406 231.308594 76.632813 231.085938 77.183594 230.890625 C 77.4375 230.792969 77.347656 230.527344 77.347656 230.527344 L 77.34375 230.507813 C 77.34375 230.507813 77.191406 229.929688 77.1875 229.902344 C 77.171875 229.875 77.101563 229.65625 76.839844 229.722656 C 76.839844 229.726563 76.828125 229.726563 76.816406 229.730469 C 76.335938 229.898438 75.726563 230.046875 74.871094 230.046875 C 72.878906 230.046875 71.386719 228.824219 71.386719 226.84375 C 71.386719 225.054688 72.636719 223.601563 74.933594 223.601563 "/>
</g>
<g clip-path="url(#clip8)" clip-rule="nonzero">
<path style=" stroke:none;fill-rule:nonzero;fill:rgb(100%,100%,100%);fill-opacity:1;" d="M 104.855469 220.796875 C 104.855469 220.796875 104.84375 220.496094 104.53125 220.570313 C 104.515625 220.574219 104.488281 220.578125 104.488281 220.578125 L 103.3125 220.898438 C 103.3125 220.898438 103.265625 220.910156 103.25 220.921875 C 103.183594 220.941406 103.074219 221.019531 103.074219 221.183594 L 103.074219 222.535156 L 101.796875 222.535156 C 101.640625 222.542969 101.515625 222.667969 101.515625 222.816406 L 101.515625 223.441406 C 101.515625 223.601563 101.640625 223.722656 101.796875 223.722656 C 101.949219 223.726563 103.074219 223.722656 103.074219 223.722656 L 103.074219 228.402344 C 103.074219 229.414063 103.257813 230.171875 103.773438 230.632813 C 104.210938 231.058594 104.898438 231.308594 105.746094 231.308594 C 106.304688 231.308594 106.78125 231.242188 107.125 231.152344 C 107.351563 231.085938 107.347656 230.871094 107.347656 230.871094 L 107.347656 230.820313 L 107.300781 230.242188 C 107.300781 230.242188 107.296875 229.972656 107.007813 229.96875 C 107.007813 229.96875 106.953125 229.972656 106.941406 229.976563 C 106.746094 230.003906 106.519531 230.019531 106.226563 230.019531 C 105.203125 230.019531 104.855469 229.414063 104.855469 228.347656 L 104.855469 223.722656 L 107.1875 223.722656 C 107.339844 223.722656 107.464844 223.601563 107.464844 223.445313 L 107.464844 222.816406 C 107.464844 222.664063 107.339844 222.535156 107.1875 222.535156 L 104.855469 222.535156 "/>
</g>
<g clip-path="url(#clip9)" clip-rule="nonzero">
<path style=" stroke:none;fill-rule:nonzero;fill:rgb(100%,100%,100%);fill-opacity:1;" d="M 86.285156 225.996094 L 80.953125 225.996094 C 81.101563 224.914063 81.914063 223.460938 83.757813 223.460938 C 85.808594 223.460938 86.304688 225.007813 86.285156 225.996094 M 88.011719 226.882813 C 88.011719 226.863281 88.023438 226.839844 88.023438 226.820313 C 88.039063 226.691406 88.046875 226.546875 88.046875 226.382813 C 88.046875 224.804688 87.175781 222.347656 83.902344 222.347656 C 80.972656 222.347656 79.195313 224.382813 79.195313 226.96875 C 79.195313 229.550781 81.042969 231.308594 84.125 231.308594 C 85.273438 231.308594 86.152344 231.152344 86.804688 230.976563 C 86.964844 230.929688 87.105469 230.890625 87.226563 230.851563 C 87.484375 230.753906 87.394531 230.507813 87.394531 230.507813 L 87.390625 230.484375 C 87.390625 230.484375 87.234375 229.929688 87.226563 229.910156 C 87.222656 229.882813 87.152344 229.667969 86.886719 229.738281 C 86.875 229.742188 86.871094 229.742188 86.871094 229.742188 C 86.847656 229.75 86.824219 229.753906 86.804688 229.765625 C 86.195313 229.953125 85.46875 230.085938 84.375 230.085938 C 82.554688 230.085938 80.972656 229.21875 80.933594 227.109375 L 87.722656 227.109375 C 87.722656 227.109375 87.972656 227.121094 88.011719 226.882813 "/>
</g>
<g clip-path="url(#clip10)" clip-rule="nonzero">
<path style=" stroke:none;fill-rule:nonzero;fill:rgb(100%,100%,100%);fill-opacity:1;" d="M 123.976563 225.996094 L 118.65625 225.996094 C 118.796875 224.914063 119.605469 223.460938 121.449219 223.460938 C 123.507813 223.460938 124 225.007813 123.976563 225.996094 M 125.707031 226.882813 C 125.714844 226.863281 125.714844 226.839844 125.714844 226.820313 C 125.734375 226.691406 125.742188 226.546875 125.742188 226.382813 C 125.742188 224.804688 124.871094 222.347656 121.597656 222.347656 C 118.671875 222.347656 116.890625 224.382813 116.890625 226.96875 C 116.890625 229.550781 118.734375 231.308594 121.824219 231.308594 C 122.96875 231.308594 123.851563 231.152344 124.496094 230.976563 C 124.65625 230.929688 124.804688 230.890625 124.925781 230.851563 C 125.179688 230.753906 125.09375 230.507813 125.09375 230.507813 L 125.082031 230.484375 C 125.082031 230.484375 124.925781 229.929688 124.925781 229.910156 C 124.917969 229.882813 124.84375 229.667969 124.578125 229.738281 C 124.574219 229.742188 124.570313 229.742188 124.570313 229.742188 C 124.539063 229.75 124.519531 229.753906 124.496094 229.765625 C 123.890625 229.953125 123.164063 230.085938 122.074219 230.085938 C 120.246094 230.085938 118.671875 229.21875 118.632813 227.109375 L 125.421875 227.109375 C 125.421875 227.109375 125.664063 227.121094 125.707031 226.882813 "/>
</g>
<path style=" stroke:none;fill-rule:nonzero;fill:rgb(25.898743%,22.399902%,5.499268%);fill-opacity:1;" d="M 84.078125 116.953125 C 84.078125 116.589844 83.914063 116.476563 83.785156 116.394531 C 82.539063 115.625 66.746094 105.679688 66.691406 105.652344 C 66.578125 105.582031 66.460938 105.558594 66.355469 105.558594 C 66.253906 105.558594 66.140625 105.582031 66.027344 105.652344 C 65.972656 105.679688 50.175781 115.625 48.925781 116.394531 C 48.800781 116.476563 48.640625 116.589844 48.640625 116.953125 L 48.640625 132.972656 C 48.640625 133.335938 49 133.453125 49.25 133.324219 C 49.25 133.324219 49.34375 133.28125 49.410156 133.246094 C 49.417969 133.242188 49.429688 133.234375 49.429688 133.234375 C 49.429688 133.234375 49.460938 133.214844 49.492188 133.195313 L 49.496094 133.191406 C 50.039063 132.859375 53.835938 130.558594 54.742188 130.019531 C 54.777344 129.988281 54.816406 129.96875 54.84375 129.953125 C 54.898438 129.921875 54.933594 129.894531 54.933594 129.894531 C 54.933594 129.894531 55.238281 129.742188 55.238281 129.351563 L 55.238281 128.96875 C 55.238281 127.390625 55.242188 121.359375 55.238281 119.972656 C 55.238281 119.648438 55.449219 119.515625 55.449219 119.515625 L 55.570313 119.4375 L 66.039063 112.863281 C 66.039063 112.863281 66.171875 112.773438 66.355469 112.773438 C 66.539063 112.773438 66.671875 112.863281 66.671875 112.863281 L 77.148438 119.4375 L 77.265625 119.515625 C 77.265625 119.515625 77.480469 119.648438 77.480469 119.972656 C 77.476563 121.566406 77.480469 129.285156 77.480469 129.351563 C 77.480469 129.742188 77.785156 129.894531 77.785156 129.894531 C 77.785156 129.894531 82.601563 132.816406 83.222656 133.191406 C 83.257813 133.214844 83.457031 133.320313 83.457031 133.320313 C 83.714844 133.453125 84.078125 133.335938 84.078125 132.972656 "/>
<path style=" stroke:none;fill-rule:nonzero;fill:rgb(25.898743%,22.399902%,5.499268%);fill-opacity:1;" d="M 21.140625 139.039063 C 20.5625 139.039063 19.972656 139.167969 19.503906 139.375 C 19 139.589844 18.585938 139.894531 18.257813 140.265625 L 18.214844 140.265625 C 18.214844 140.265625 18.210938 136.515625 18.214844 136.339844 C 18.214844 136.167969 18.097656 136.078125 18.039063 136.0625 C 17.980469 136.042969 16.171875 135.550781 15.453125 135.351563 C 15.324219 135.320313 15.144531 135.402344 15.144531 135.574219 L 15.144531 147.621094 C 15.15625 147.777344 15.28125 147.898438 15.433594 147.898438 L 17.933594 147.898438 C 18.089844 147.898438 18.214844 147.773438 18.214844 147.617188 L 18.214844 142.757813 C 18.214844 142.5625 18.234375 142.335938 18.316406 142.160156 C 18.542969 141.683594 19.0625 141.21875 19.890625 141.21875 C 21.082031 141.21875 21.53125 142 21.53125 143.128906 L 21.53125 147.617188 C 21.53125 147.773438 21.660156 147.898438 21.816406 147.898438 L 24.398438 147.898438 C 24.554688 147.898438 24.6875 147.773438 24.6875 147.617188 L 24.6875 142.832031 C 24.6875 140.226563 23.152344 139.039063 21.140625 139.039063 "/>
<path style=" stroke:none;fill-rule:nonzero;fill:rgb(25.898743%,22.399902%,5.499268%);fill-opacity:1;" d="M 60.527344 142.582031 C 60.605469 141.855469 61.148438 140.832031 62.472656 140.832031 C 63.925781 140.832031 64.257813 141.925781 64.257813 142.582031 M 62.664063 139.039063 C 59.136719 139.039063 57.546875 141.46875 57.546875 143.664063 C 57.546875 146.375 59.515625 148.09375 62.957031 148.09375 C 64.226563 148.09375 65.402344 147.921875 66.394531 147.617188 C 66.605469 147.542969 66.574219 147.335938 66.5625 147.277344 C 66.558594 147.238281 66.273438 146.023438 66.273438 146.023438 C 66.273438 146.023438 66.230469 145.734375 65.9375 145.792969 C 65.9375 145.792969 65.902344 145.796875 65.886719 145.800781 C 65.132813 145.980469 64.351563 146.074219 63.410156 146.074219 C 61.9375 146.074219 60.652344 145.539063 60.546875 144.425781 L 66.8125 144.425781 C 66.8125 144.425781 67.089844 144.433594 67.128906 144.164063 C 67.128906 144.140625 67.128906 144.117188 67.132813 144.089844 C 67.160156 143.886719 67.183594 143.632813 67.183594 143.363281 C 67.183594 141.21875 65.9375 139.039063 62.664063 139.039063 "/>
<path style=" stroke:none;fill-rule:nonzero;fill:rgb(25.898743%,22.399902%,5.499268%);fill-opacity:1;" d="M 32.34375 146.164063 C 30.992188 146.164063 30.269531 145.042969 30.269531 143.558594 C 30.269531 142.285156 30.832031 140.953125 32.34375 140.953125 C 33.773438 140.953125 34.351563 142.261719 34.351563 143.558594 C 34.351563 145.117188 33.566406 146.164063 32.34375 146.164063 M 32.425781 139.039063 C 29.171875 139.039063 27.011719 140.832031 27.011719 143.628906 C 27.011719 146.425781 29.292969 148.09375 32.261719 148.09375 C 34.976563 148.09375 37.609375 146.640625 37.609375 143.472656 C 37.609375 140.867188 35.53125 139.039063 32.425781 139.039063 "/>
<path style=" stroke:none;fill-rule:nonzero;fill:rgb(25.898743%,22.399902%,5.499268%);fill-opacity:1;" d="M 51.835938 139.039063 C 51.085938 139.039063 50.464844 139.179688 49.90625 139.464844 C 49.429688 139.714844 48.972656 140.050781 48.597656 140.507813 L 48.558594 140.507813 C 48.121094 139.601563 47.089844 139.039063 45.78125 139.039063 C 44.035156 139.039063 43.144531 139.855469 42.714844 140.402344 L 42.714844 139.519531 C 42.714844 139.363281 42.585938 139.234375 42.4375 139.234375 L 40.214844 139.234375 C 40.058594 139.234375 39.933594 139.363281 39.929688 139.519531 C 39.929688 139.675781 39.933594 142 39.933594 142 L 39.933594 147.617188 C 39.933594 147.773438 40.058594 147.898438 40.214844 147.898438 C 40.214844 147.898438 42.570313 147.898438 42.726563 147.898438 C 42.878906 147.894531 43.003906 147.773438 43.003906 147.617188 L 43.003906 142.847656 C 43.003906 142.636719 43.023438 142.386719 43.125 142.175781 C 43.3125 141.734375 43.792969 141.203125 44.59375 141.203125 C 45.59375 141.203125 46.046875 141.941406 46.046875 143.046875 L 46.046875 147.617188 C 46.046875 147.773438 46.171875 147.898438 46.332031 147.898438 L 48.839844 147.898438 C 48.992188 147.898438 49.113281 147.773438 49.113281 147.617188 L 49.113281 142.832031 C 49.113281 142.621094 49.160156 142.335938 49.242188 142.140625 C 49.449219 141.632813 49.96875 141.203125 50.695313 141.203125 C 51.710938 141.203125 52.1875 141.925781 52.1875 143.183594 L 52.1875 147.617188 C 52.1875 147.773438 52.316406 147.898438 52.46875 147.898438 L 54.972656 147.898438 C 55.132813 147.898438 55.257813 147.773438 55.257813 147.617188 L 55.257813 142.796875 C 55.257813 140.210938 53.78125 139.039063 51.835938 139.039063 "/>
<path style=" stroke:none;fill-rule:nonzero;fill:rgb(25.898743%,22.399902%,5.499268%);fill-opacity:1;" d="M 112.101563 141.007813 L 112.105469 139.601563 C 112.101563 139.449219 111.980469 139.324219 111.820313 139.320313 L 110.726563 139.320313 C 110.570313 139.324219 110.445313 139.453125 110.445313 139.601563 L 110.445313 147.613281 C 110.445313 147.773438 110.570313 147.894531 110.726563 147.898438 C 110.878906 147.898438 111.960938 147.898438 111.960938 147.898438 C 112.121094 147.898438 112.246094 147.773438 112.246094 147.613281 L 112.246094 143.324219 C 112.246094 143.0625 112.289063 142.808594 112.328125 142.601563 C 112.578125 141.433594 113.496094 140.597656 114.78125 140.597656 C 114.882813 140.597656 114.976563 140.601563 115.066406 140.609375 C 115.40625 140.617188 115.398438 140.324219 115.398438 140.324219 L 115.398438 139.441406 C 115.398438 139.441406 115.398438 139.386719 115.386719 139.347656 C 115.367188 139.273438 115.3125 139.167969 115.152344 139.140625 C 115.070313 139.132813 114.984375 139.132813 114.878906 139.132813 C 113.65625 139.132813 112.558594 139.855469 112.101563 141.007813 "/>
<path style=" stroke:none;fill-rule:nonzero;fill:rgb(25.898743%,22.399902%,5.499268%);fill-opacity:1;" d="M 95.738281 139.132813 C 94.078125 139.132813 92.917969 139.925781 92.425781 140.746094 L 92.425781 139.601563 C 92.417969 139.453125 92.292969 139.324219 92.144531 139.324219 L 91.03125 139.324219 C 90.875 139.324219 90.742188 139.453125 90.742188 139.601563 L 90.742188 147.617188 C 90.742188 147.773438 90.871094 147.894531 91.027344 147.898438 C 91.179688 147.898438 92.285156 147.898438 92.285156 147.898438 C 92.445313 147.898438 92.566406 147.773438 92.566406 147.617188 L 92.566406 142.746094 C 92.566406 142.476563 92.613281 142.210938 92.695313 142.015625 C 93 141.144531 93.933594 140.421875 95.140625 140.421875 C 96.859375 140.421875 97.453125 141.574219 97.453125 142.953125 L 97.453125 147.617188 C 97.453125 147.773438 97.585938 147.898438 97.746094 147.898438 L 99.003906 147.898438 C 99.15625 147.898438 99.28125 147.773438 99.28125 147.617188 L 99.28125 142.78125 C 99.28125 139.835938 97.128906 139.132813 95.738281 139.132813 "/>
<path style=" stroke:none;fill-rule:nonzero;fill:rgb(25.898743%,22.399902%,5.499268%);fill-opacity:1;" d="M 74.933594 140.386719 C 75.695313 140.386719 76.277344 140.5 76.699219 140.648438 C 76.710938 140.65625 76.722656 140.660156 76.722656 140.660156 C 77.050781 140.78125 77.144531 140.519531 77.144531 140.519531 L 77.378906 139.835938 C 77.378906 139.835938 77.457031 139.574219 77.195313 139.488281 C 77.195313 139.488281 77.171875 139.484375 77.160156 139.476563 C 76.625 139.300781 75.824219 139.144531 74.933594 139.144531 C 71.65625 139.144531 69.546875 141.058594 69.546875 143.699219 C 69.546875 146.320313 71.511719 148.09375 74.539063 148.09375 C 75.691406 148.09375 76.632813 147.871094 77.183594 147.675781 C 77.4375 147.574219 77.347656 147.308594 77.347656 147.308594 L 77.34375 147.292969 C 77.34375 147.292969 77.191406 146.714844 77.1875 146.6875 C 77.171875 146.65625 77.101563 146.4375 76.839844 146.507813 C 76.839844 146.511719 76.828125 146.511719 76.816406 146.511719 C 76.335938 146.679688 75.726563 146.832031 74.871094 146.832031 C 72.878906 146.832031 71.386719 145.609375 71.386719 143.628906 C 71.386719 141.839844 72.636719 140.386719 74.933594 140.386719 "/>
<path style=" stroke:none;fill-rule:nonzero;fill:rgb(25.898743%,22.399902%,5.499268%);fill-opacity:1;" d="M 104.855469 137.578125 C 104.855469 137.578125 104.84375 137.28125 104.53125 137.355469 C 104.515625 137.359375 104.488281 137.363281 104.488281 137.363281 L 103.3125 137.683594 C 103.3125 137.683594 103.265625 137.695313 103.25 137.707031 C 103.183594 137.726563 103.074219 137.804688 103.074219 137.96875 L 103.074219 139.320313 L 101.796875 139.320313 C 101.640625 139.328125 101.515625 139.453125 101.515625 139.601563 L 101.515625 140.226563 C 101.515625 140.382813 101.640625 140.507813 101.796875 140.507813 C 101.949219 140.511719 103.074219 140.507813 103.074219 140.507813 L 103.074219 145.1875 C 103.074219 146.199219 103.257813 146.957031 103.773438 147.417969 C 104.210938 147.84375 104.898438 148.09375 105.746094 148.09375 C 106.304688 148.09375 106.78125 148.027344 107.125 147.9375 C 107.351563 147.871094 107.347656 147.65625 107.347656 147.65625 L 107.347656 147.601563 L 107.300781 147.027344 C 107.300781 147.027344 107.296875 146.757813 107.007813 146.753906 C 107.007813 146.753906 106.953125 146.757813 106.941406 146.757813 C 106.746094 146.785156 106.519531 146.800781 106.226563 146.800781 C 105.203125 146.800781 104.855469 146.199219 104.855469 145.132813 L 104.855469 140.507813 L 107.1875 140.507813 C 107.339844 140.507813 107.464844 140.386719 107.464844 140.230469 L 107.464844 139.601563 C 107.464844 139.449219 107.339844 139.320313 107.1875 139.320313 L 104.855469 139.320313 "/>
<path style=" stroke:none;fill-rule:nonzero;fill:rgb(25.898743%,22.399902%,5.499268%);fill-opacity:1;" d="M 86.285156 142.78125 L 80.953125 142.78125 C 81.101563 141.699219 81.914063 140.242188 83.757813 140.242188 C 85.808594 140.242188 86.304688 141.792969 86.285156 142.78125 M 88.011719 143.664063 C 88.011719 143.648438 88.023438 143.625 88.023438 143.605469 C 88.039063 143.476563 88.046875 143.332031 88.046875 143.167969 C 88.046875 141.589844 87.175781 139.132813 83.902344 139.132813 C 80.972656 139.132813 79.195313 141.167969 79.195313 143.753906 C 79.195313 146.335938 81.042969 148.09375 84.125 148.09375 C 85.273438 148.09375 86.152344 147.9375 86.804688 147.757813 C 86.964844 147.714844 87.105469 147.675781 87.226563 147.632813 C 87.484375 147.539063 87.394531 147.292969 87.394531 147.292969 L 87.390625 147.269531 C 87.390625 147.269531 87.234375 146.714844 87.226563 146.695313 C 87.222656 146.667969 87.152344 146.453125 86.886719 146.519531 C 86.875 146.527344 86.871094 146.527344 86.871094 146.527344 C 86.847656 146.535156 86.824219 146.539063 86.804688 146.550781 C 86.195313 146.738281 85.46875 146.871094 84.375 146.871094 C 82.554688 146.871094 80.972656 146.003906 80.933594 143.894531 L 87.722656 143.894531 C 87.722656 143.894531 87.972656 143.90625 88.011719 143.664063 "/>
<path style=" stroke:none;fill-rule:nonzero;fill:rgb(25.898743%,22.399902%,5.499268%);fill-opacity:1;" d="M 123.976563 142.78125 L 118.65625 142.78125 C 118.796875 141.699219 119.605469 140.242188 121.449219 140.242188 C 123.507813 140.242188 124 141.792969 123.976563 142.78125 M 125.707031 143.664063 C 125.714844 143.648438 125.714844 143.625 125.714844 143.605469 C 125.734375 143.476563 125.742188 143.332031 125.742188 143.167969 C 125.742188 141.589844 124.871094 139.132813 121.597656 139.132813 C 118.671875 139.132813 116.890625 141.167969 116.890625 143.753906 C 116.890625 146.335938 118.734375 148.09375 121.824219 148.09375 C 122.96875 148.09375 123.851563 147.9375 124.496094 147.757813 C 124.65625 147.714844 124.804688 147.675781 124.925781 147.632813 C 125.179688 147.539063 125.09375 147.292969 125.09375 147.292969 L 125.082031 147.269531 C 125.082031 147.269531 124.925781 146.714844 124.925781 146.695313 C 124.917969 146.667969 124.84375 146.453125 124.578125 146.519531 C 124.574219 146.527344 124.570313 146.527344 124.570313 146.527344 C 124.539063 146.535156 124.519531 146.539063 124.496094 146.550781 C 123.890625 146.738281 123.164063 146.871094 122.074219 146.871094 C 120.246094 146.871094 118.671875 146.003906 118.632813 143.894531 L 125.421875 143.894531 C 125.421875 143.894531 125.664063 143.90625 125.707031 143.664063 "/>
<g clip-path="url(#clip11)" clip-rule="nonzero">
<path style=" stroke:none;fill-rule:nonzero;fill:rgb(74.899292%,84.298706%,18.399048%);fill-opacity:1;" d="M 140.886719 62.597656 C 140.886719 63.488281 140.167969 64.207031 139.277344 64.207031 L 1.613281 64.207031 C 0.71875 64.207031 0 63.488281 0 62.597656 L 0 1.601563 C 0 0.710938 0.71875 -0.00390625 1.613281 -0.00390625 L 139.277344 -0.00390625 C 140.167969 -0.00390625 140.886719 0.710938 140.886719 1.601563 "/>
</g>
<path style=" stroke:none;fill-rule:nonzero;fill:rgb(25.898743%,22.399902%,5.499268%);fill-opacity:1;" d="M 84.464844 20.085938 C 84.464844 19.722656 84.304688 19.605469 84.175781 19.527344 C 82.925781 18.757813 67.132813 8.8125 67.082031 8.78125 C 66.964844 8.714844 66.847656 8.691406 66.746094 8.691406 C 66.640625 8.691406 66.53125 8.714844 66.414063 8.78125 C 66.363281 8.8125 50.5625 18.757813 49.3125 19.527344 C 49.1875 19.605469 49.027344 19.722656 49.027344 20.085938 L 49.027344 36.105469 C 49.027344 36.46875 49.390625 36.585938 49.640625 36.457031 C 49.640625 36.457031 49.730469 36.410156 49.796875 36.375 C 49.804688 36.371094 49.816406 36.367188 49.820313 36.363281 C 49.820313 36.363281 49.851563 36.347656 49.878906 36.328125 L 49.882813 36.324219 C 50.425781 35.992188 54.222656 33.691406 55.128906 33.148438 C 55.164063 33.121094 55.203125 33.097656 55.230469 33.085938 C 55.289063 33.050781 55.324219 33.027344 55.324219 33.027344 C 55.324219 33.027344 55.625 32.875 55.625 32.484375 L 55.625 32.101563 C 55.625 30.523438 55.628906 24.488281 55.625 23.105469 C 55.625 22.78125 55.835938 22.648438 55.835938 22.648438 L 55.957031 22.570313 L 66.429688 15.996094 C 66.429688 15.996094 66.558594 15.902344 66.746094 15.902344 C 66.929688 15.902344 67.058594 15.996094 67.058594 15.996094 L 77.535156 22.570313 L 77.652344 22.648438 C 77.652344 22.648438 77.867188 22.78125 77.867188 23.105469 C 77.867188 24.699219 77.867188 32.417969 77.867188 32.484375 C 77.867188 32.875 78.171875 33.027344 78.171875 33.027344 C 78.171875 33.027344 82.992188 35.945313 83.609375 36.324219 C 83.644531 36.347656 83.84375 36.453125 83.84375 36.453125 C 84.101563 36.585938 84.464844 36.46875 84.464844 36.105469 "/>
<path style=" stroke:none;fill-rule:nonzero;fill:rgb(25.898743%,22.399902%,5.499268%);fill-opacity:1;" d="M 21.527344 42.171875 C 20.949219 42.171875 20.359375 42.296875 19.890625 42.507813 C 19.386719 42.722656 18.976563 43.023438 18.644531 43.394531 L 18.601563 43.394531 C 18.601563 43.394531 18.601563 39.648438 18.601563 39.472656 C 18.601563 39.300781 18.484375 39.210938 18.425781 39.191406 C 18.371094 39.171875 16.558594 38.683594 15.84375 38.484375 C 15.710938 38.453125 15.53125 38.535156 15.53125 38.707031 L 15.53125 50.753906 C 15.542969 50.90625 15.667969 51.03125 15.820313 51.03125 L 18.320313 51.03125 C 18.476563 51.03125 18.601563 50.90625 18.601563 50.746094 L 18.601563 45.890625 C 18.601563 45.691406 18.621094 45.46875 18.703125 45.292969 C 18.933594 44.8125 19.453125 44.351563 20.277344 44.351563 C 21.46875 44.351563 21.921875 45.132813 21.921875 46.261719 L 21.921875 50.746094 C 21.921875 50.90625 22.046875 51.03125 22.207031 51.03125 L 24.785156 51.03125 C 24.945313 51.03125 25.074219 50.90625 25.074219 50.746094 L 25.074219 45.960938 C 25.074219 43.359375 23.539063 42.171875 21.527344 42.171875 "/>
<path style=" stroke:none;fill-rule:nonzero;fill:rgb(25.898743%,22.399902%,5.499268%);fill-opacity:1;" d="M 60.917969 45.714844 C 60.992188 44.984375 61.535156 43.964844 62.863281 43.964844 C 64.3125 43.964844 64.644531 45.058594 64.644531 45.714844 M 63.050781 42.171875 C 59.523438 42.171875 57.933594 44.597656 57.933594 46.796875 C 57.933594 49.507813 59.902344 51.226563 63.34375 51.226563 C 64.613281 51.226563 65.792969 51.054688 66.785156 50.746094 C 66.996094 50.675781 66.960938 50.46875 66.953125 50.410156 C 66.945313 50.371094 66.664063 49.15625 66.664063 49.15625 C 66.664063 49.15625 66.617188 48.863281 66.324219 48.921875 C 66.324219 48.921875 66.289063 48.925781 66.273438 48.933594 C 65.523438 49.109375 64.738281 49.203125 63.800781 49.203125 C 62.328125 49.203125 61.039063 48.671875 60.933594 47.558594 L 67.199219 47.558594 C 67.199219 47.558594 67.476563 47.566406 67.515625 47.296875 C 67.519531 47.273438 67.519531 47.246094 67.519531 47.21875 C 67.546875 47.015625 67.570313 46.765625 67.570313 46.492188 C 67.570313 44.351563 66.328125 42.171875 63.050781 42.171875 "/>
<path style=" stroke:none;fill-rule:nonzero;fill:rgb(25.898743%,22.399902%,5.499268%);fill-opacity:1;" d="M 32.730469 49.296875 C 31.378906 49.296875 30.660156 48.175781 30.660156 46.691406 C 30.660156 45.414063 31.21875 44.082031 32.730469 44.082031 C 34.164063 44.082031 34.738281 45.394531 34.738281 46.691406 C 34.738281 48.25 33.953125 49.296875 32.730469 49.296875 M 32.8125 42.171875 C 29.558594 42.171875 27.398438 43.964844 27.398438 46.761719 C 27.398438 49.554688 29.679688 51.222656 32.652344 51.222656 C 35.363281 51.222656 38 49.773438 38 46.601563 C 38 43.996094 35.921875 42.171875 32.8125 42.171875 "/>
<path style=" stroke:none;fill-rule:nonzero;fill:rgb(25.898743%,22.399902%,5.499268%);fill-opacity:1;" d="M 52.222656 42.171875 C 51.472656 42.171875 50.851563 42.3125 50.292969 42.597656 C 49.816406 42.847656 49.363281 43.179688 48.984375 43.636719 L 48.949219 43.636719 C 48.511719 42.734375 47.476563 42.171875 46.167969 42.171875 C 44.421875 42.171875 43.53125 42.988281 43.101563 43.535156 L 43.101563 42.648438 C 43.101563 42.492188 42.972656 42.363281 42.824219 42.363281 L 40.601563 42.363281 C 40.445313 42.363281 40.320313 42.492188 40.320313 42.648438 C 40.320313 42.808594 40.320313 45.132813 40.320313 45.132813 L 40.320313 50.746094 C 40.320313 50.90625 40.445313 51.03125 40.601563 51.03125 C 40.601563 51.03125 42.957031 51.03125 43.113281 51.03125 C 43.265625 51.023438 43.390625 50.90625 43.390625 50.746094 L 43.390625 45.980469 C 43.390625 45.765625 43.410156 45.519531 43.515625 45.308594 C 43.703125 44.867188 44.179688 44.335938 44.984375 44.335938 C 45.980469 44.335938 46.4375 45.074219 46.4375 46.179688 L 46.4375 50.746094 C 46.4375 50.90625 46.558594 51.03125 46.71875 51.03125 L 49.226563 51.03125 C 49.378906 51.03125 49.5 50.90625 49.5 50.746094 L 49.5 45.960938 C 49.5 45.75 49.546875 45.46875 49.628906 45.269531 C 49.839844 44.765625 50.355469 44.335938 51.082031 44.335938 C 52.097656 44.335938 52.574219 45.058594 52.574219 46.316406 L 52.574219 50.746094 C 52.574219 50.90625 52.703125 51.03125 52.855469 51.03125 L 55.359375 51.03125 C 55.519531 51.03125 55.644531 50.90625 55.644531 50.746094 L 55.644531 45.929688 C 55.644531 43.34375 54.167969 42.171875 52.222656 42.171875 "/>
<path style=" stroke:none;fill-rule:nonzero;fill:rgb(25.898743%,22.399902%,5.499268%);fill-opacity:1;" d="M 112.492188 44.140625 L 112.492188 42.734375 C 112.492188 42.582031 112.367188 42.457031 112.210938 42.453125 L 111.113281 42.453125 C 110.960938 42.457031 110.835938 42.582031 110.835938 42.734375 L 110.835938 42.738281 L 110.832031 45.128906 L 110.832031 50.746094 C 110.832031 50.90625 110.960938 51.027344 111.113281 51.027344 C 111.265625 51.03125 112.351563 51.027344 112.351563 51.027344 C 112.507813 51.027344 112.632813 50.90625 112.632813 50.746094 L 112.632813 46.457031 C 112.632813 46.195313 112.675781 45.941406 112.714844 45.734375 C 112.964844 44.5625 113.882813 43.730469 115.167969 43.730469 C 115.269531 43.730469 115.367188 43.734375 115.453125 43.738281 C 115.796875 43.75 115.785156 43.453125 115.785156 43.453125 L 115.785156 42.570313 C 115.785156 42.570313 115.785156 42.519531 115.773438 42.476563 C 115.753906 42.402344 115.699219 42.296875 115.539063 42.273438 C 115.460938 42.265625 115.371094 42.261719 115.265625 42.261719 C 114.046875 42.261719 112.945313 42.988281 112.492188 44.140625 "/>
<path style=" stroke:none;fill-rule:nonzero;fill:rgb(25.898743%,22.399902%,5.499268%);fill-opacity:1;" d="M 96.125 42.261719 C 94.464844 42.261719 93.308594 43.058594 92.8125 43.875 L 92.8125 42.734375 C 92.808594 42.582031 92.679688 42.453125 92.53125 42.453125 L 91.417969 42.453125 C 91.261719 42.453125 91.128906 42.582031 91.128906 42.734375 L 91.128906 50.746094 C 91.128906 50.90625 91.257813 51.027344 91.414063 51.03125 C 91.566406 51.03125 92.671875 51.03125 92.671875 51.03125 C 92.832031 51.03125 92.953125 50.90625 92.953125 50.746094 L 92.953125 45.878906 C 92.953125 45.609375 93 45.34375 93.082031 45.148438 C 93.386719 44.277344 94.320313 43.554688 95.527344 43.554688 C 97.246094 43.554688 97.84375 44.703125 97.84375 46.085938 L 97.84375 50.746094 C 97.84375 50.90625 97.972656 51.03125 98.132813 51.03125 L 99.390625 51.03125 C 99.546875 51.03125 99.667969 50.90625 99.667969 50.746094 L 99.667969 45.910156 C 99.667969 42.96875 97.519531 42.261719 96.125 42.261719 "/>
<path style=" stroke:none;fill-rule:nonzero;fill:rgb(25.898743%,22.399902%,5.499268%);fill-opacity:1;" d="M 75.324219 43.519531 C 76.082031 43.519531 76.664063 43.632813 77.089844 43.777344 C 77.097656 43.785156 77.113281 43.792969 77.113281 43.792969 C 77.441406 43.910156 77.53125 43.652344 77.53125 43.652344 L 77.765625 42.96875 C 77.765625 42.96875 77.84375 42.707031 77.585938 42.621094 C 77.585938 42.621094 77.5625 42.617188 77.550781 42.609375 C 77.015625 42.433594 76.214844 42.277344 75.324219 42.277344 C 72.042969 42.277344 69.933594 44.191406 69.933594 46.832031 C 69.933594 49.453125 71.898438 51.226563 74.925781 51.226563 C 76.078125 51.226563 77.023438 51.003906 77.570313 50.804688 C 77.828125 50.707031 77.734375 50.441406 77.734375 50.441406 L 77.730469 50.421875 C 77.730469 50.421875 77.578125 49.847656 77.574219 49.816406 C 77.5625 49.789063 77.492188 49.570313 77.226563 49.640625 C 77.226563 49.640625 77.214844 49.640625 77.207031 49.644531 C 76.722656 49.8125 76.113281 49.964844 75.257813 49.964844 C 73.265625 49.964844 71.777344 48.742188 71.777344 46.761719 C 71.777344 44.972656 73.023438 43.519531 75.324219 43.519531 "/>
<path style=" stroke:none;fill-rule:nonzero;fill:rgb(25.898743%,22.399902%,5.499268%);fill-opacity:1;" d="M 105.242188 40.710938 C 105.242188 40.710938 105.230469 40.414063 104.921875 40.488281 C 104.902344 40.488281 104.875 40.496094 104.875 40.496094 L 103.699219 40.816406 C 103.699219 40.816406 103.652344 40.828125 103.636719 40.839844 C 103.570313 40.859375 103.460938 40.9375 103.460938 41.097656 L 103.460938 42.453125 L 102.183594 42.453125 C 102.027344 42.457031 101.902344 42.582031 101.902344 42.734375 L 101.902344 43.355469 C 101.902344 43.515625 102.027344 43.636719 102.183594 43.636719 C 102.339844 43.640625 103.460938 43.636719 103.460938 43.636719 L 103.460938 48.320313 C 103.460938 49.332031 103.644531 50.089844 104.164063 50.550781 C 104.597656 50.976563 105.285156 51.222656 106.136719 51.222656 C 106.691406 51.222656 107.167969 51.15625 107.511719 51.066406 C 107.738281 51.003906 107.734375 50.789063 107.734375 50.789063 L 107.734375 50.734375 L 107.6875 50.160156 C 107.6875 50.160156 107.6875 49.886719 107.394531 49.882813 C 107.394531 49.882813 107.339844 49.886719 107.328125 49.890625 C 107.136719 49.917969 106.910156 49.933594 106.613281 49.933594 C 105.59375 49.933594 105.242188 49.332031 105.242188 48.265625 L 105.242188 43.636719 L 107.574219 43.636719 C 107.726563 43.636719 107.851563 43.515625 107.851563 43.359375 L 107.851563 42.734375 C 107.851563 42.582031 107.726563 42.453125 107.574219 42.453125 L 105.242188 42.453125 "/>
<path style=" stroke:none;fill-rule:nonzero;fill:rgb(25.898743%,22.399902%,5.499268%);fill-opacity:1;" d="M 86.671875 45.910156 L 81.34375 45.910156 C 81.492188 44.828125 82.300781 43.375 84.144531 43.375 C 86.195313 43.375 86.695313 44.925781 86.671875 45.910156 M 88.402344 46.796875 C 88.402344 46.777344 88.410156 46.757813 88.410156 46.734375 C 88.425781 46.609375 88.433594 46.464844 88.433594 46.296875 C 88.433594 44.722656 87.566406 42.261719 84.289063 42.261719 C 81.363281 42.261719 79.582031 44.296875 79.582031 46.886719 C 79.582031 49.46875 81.429688 51.226563 84.515625 51.226563 C 85.660156 51.226563 86.539063 51.066406 87.191406 50.890625 C 87.351563 50.847656 87.492188 50.808594 87.613281 50.765625 C 87.875 50.671875 87.78125 50.425781 87.78125 50.425781 L 87.777344 50.402344 C 87.777344 50.402344 87.621094 49.847656 87.613281 49.824219 C 87.609375 49.796875 87.539063 49.585938 87.277344 49.652344 C 87.261719 49.65625 87.257813 49.660156 87.257813 49.660156 C 87.234375 49.664063 87.210938 49.671875 87.191406 49.679688 C 86.582031 49.867188 85.855469 50 84.761719 50 C 82.941406 50 81.363281 49.136719 81.320313 47.027344 L 88.109375 47.027344 C 88.109375 47.027344 88.359375 47.039063 88.402344 46.796875 "/>
<path style=" stroke:none;fill-rule:nonzero;fill:rgb(25.898743%,22.399902%,5.499268%);fill-opacity:1;" d="M 124.363281 45.910156 L 119.042969 45.910156 C 119.183594 44.828125 119.992188 43.375 121.835938 43.375 C 123.894531 43.375 124.386719 44.925781 124.363281 45.910156 M 126.097656 46.796875 C 126.101563 46.777344 126.105469 46.757813 126.105469 46.734375 C 126.121094 46.609375 126.132813 46.464844 126.132813 46.296875 C 126.132813 44.722656 125.257813 42.261719 121.988281 42.261719 C 119.058594 42.261719 117.277344 44.296875 117.277344 46.886719 C 117.277344 49.46875 119.121094 51.226563 122.210938 51.226563 C 123.355469 51.226563 124.238281 51.066406 124.886719 50.890625 C 125.046875 50.847656 125.191406 50.808594 125.3125 50.765625 C 125.566406 50.671875 125.480469 50.425781 125.480469 50.425781 L 125.46875 50.402344 C 125.46875 50.402344 125.316406 49.847656 125.3125 49.824219 C 125.308594 49.796875 125.230469 49.585938 124.96875 49.652344 C 124.960938 49.65625 124.957031 49.660156 124.957031 49.660156 C 124.929688 49.664063 124.90625 49.671875 124.886719 49.679688 C 124.277344 49.867188 123.550781 50 122.464844 50 C 120.636719 50 119.058594 49.136719 119.019531 47.027344 L 125.808594 47.027344 C 125.808594 47.027344 126.050781 47.039063 126.097656 46.796875 "/>
</g>
</svg>
